<svg width="549" height="509" viewBox="0 0 549 509" fill="none" xmlns="http://www.w3.org/2000/svg">
<rect y="52" width="183" height="171" fill="#06D6A0"/>
<rect x="215" width="224" height="198" fill="#FFD166"/>
<rect x="28" y="237" width="128" height="117" fill="#118AB2"/>
<rect x="218" y="210" width="331" height="299" fill="#EF476F"/>
<g filter="url(#filter0_d_301_158)">
<path fill-rule="evenodd" clip-rule="evenodd" d="M259.811 36.1567C281.997 35.691 310.407 56.8431 318.804 65.9218C325.863 73.5545 326.041 113.636 326.722 137.4C326.865 142.37 324.517 151.832 323.704 156.606C320.721 174.1 305.978 189.029 275.97 189.659C251.537 190.172 232.544 183.92 213.875 167.302C209.616 163.511 189.754 177.82 185.467 172.907C174.646 173.134 163.113 86.4851 183.615 59.9924C204.118 33.4998 237.625 36.6224 259.811 36.1567Z" fill="#D08B5B"/>
<path fill-rule="evenodd" clip-rule="evenodd" d="M193.303 43.6731C205.837 33.3872 222.778 28.2099 240.019 28.2039C248.949 28.2011 257.884 29.4742 266.383 31.7973C270.634 32.9638 274.765 34.5157 278.721 36.2861C280.147 36.9226 281.467 37.6758 282.739 38.4783L283.056 38.6798H283.059C286.437 39.6431 289.48 41.4361 292.253 43.5503C297.678 43.0637 303.167 43.3682 308.464 44.6975C315.837 46.5507 322.713 50.0831 327.617 55.2015C333.331 61.16 335.383 68.4902 334.944 76.1111L334.858 77.4058C334.4 84.1391 333.485 92.8068 327.189 97.3569C326.71 97.7026 326.178 97.969 325.624 98.1351C329.936 104.136 333.523 110.823 335.752 117.606C344.252 143.514 339.069 170.827 330.461 196.151C329.753 198.238 326.147 199.689 324.233 197.704C320.817 194.157 315.924 191.499 310.494 191.097C307.144 190.848 303.835 191.494 300.64 190.258C299.387 189.771 298.167 188.958 297.279 187.955C291.999 189.803 286.283 190.741 280.584 190.66C271.231 190.527 261.164 187.959 254.564 182C253.504 181.042 253.211 179.949 253.42 178.955C254.219 178.691 255.042 178.49 255.891 178.357C264.16 182.311 273.222 184.879 282.883 184.85C288.465 184.833 293.888 184.048 298.327 180.961C299.287 180.294 300.167 179.557 300.978 178.769C310.286 173.345 316.701 164.329 319.6 154.756C322.3 145.828 321.673 136.604 320.396 127.531L319.723 122.744C318.74 115.717 317.813 108.667 317.409 101.598L317.47 101.594C319.463 101.442 319.402 98.7556 317.392 98.9097C312.198 99.3082 307.012 98.6834 301.832 99.1117C301.729 97.0062 301.491 94.9129 300.713 92.8965C300.268 91.7444 297.909 91.5649 297.698 92.9597C297.418 94.8259 297.35 96.6771 297.366 98.5454C289.6 98.6197 281.827 98.2214 274.068 98.6149C272.598 97.3329 272.075 95.016 271.359 93.4116C271.255 93.1754 271.15 92.9425 271.042 92.7064C270.519 95.0315 269.75 97.3111 268.716 99.5487L266.81 99.5942C256.006 99.8645 244.988 100.373 234.492 102.522C233.745 102.054 233.284 101.219 233.144 100.456C232.236 95.4867 231.005 90.6569 228.933 85.9468L228.637 85.2823C228.613 85.2272 228.587 85.1686 228.561 85.107C227.191 87.1145 225.541 88.9936 223.734 90.749C222.669 91.7838 221.549 92.7753 220.399 93.7398C219.287 94.8545 218.135 95.9535 217.021 97.0715C217.071 97.2695 217.116 97.4708 217.154 97.6758C217.569 99.9386 217.672 102.24 217.48 104.524C217.134 108.654 215.893 112.652 213.822 116.37L213.764 116.74C213.483 118.468 213.064 120.256 212.003 121.575C213.411 122.865 214.511 124.417 215.173 126.154C215.762 127.699 213.292 129.102 211.954 127.855C210.892 126.864 209.719 126.05 208.439 125.408C208.362 125.503 208.22 125.551 208.056 125.477C204.495 123.876 198.543 124.508 195.08 126.159C190.771 128.211 189.183 132.27 189.784 136.337C190.36 140.223 192.476 144.735 196.381 146.651C198.174 147.53 199.551 147.578 201.414 147.099C202.01 146.947 202.741 146.502 203.054 146.283L203.362 146.06C204.568 145.199 205.696 144.604 207.147 144.551C208.62 144.123 210.128 144.643 210.734 145.968L210.771 146.054C211.057 146.729 211.566 147.575 211.49 148.617C211.412 149.734 210.847 150.76 209.984 151.594C209.835 151.738 209.675 151.882 209.511 152.016C225.195 165.901 227.79 187.993 220.463 205.904C220.145 206.689 219.804 207.465 219.447 208.236C218.212 210.874 213.149 210.17 212.434 207.597C212.22 206.825 211.987 206.058 211.735 205.297C211.271 203.893 210.745 202.502 210.158 201.133L209.935 200.622C209.438 199.489 208.971 198.347 208.47 197.216L208.419 197.088C208.4 197.037 208.379 196.977 208.355 196.91L207.605 198.414L205.322 202.952C204.254 205.069 200.637 204.006 200.446 201.991L200.441 201.922C200.418 201.549 200.392 201.181 200.355 200.815C200.104 198.077 199.477 195.425 198.527 192.836L198.221 193.179C193.662 198.271 188.277 203.066 180.74 204.376C178.849 204.705 176.651 203.045 177.909 201.371C178.429 200.679 178.929 199.969 179.401 199.251C178.97 199.089 178.562 198.919 178.186 198.746C175.275 197.42 172.827 195.496 170.786 193.3C166.458 188.643 164.786 182.702 164.252 176.864C163.684 170.694 164.131 164.167 165.926 158.166C166.704 155.571 167.786 153.074 169.05 150.646C168.95 150.434 168.854 150.221 168.758 150.008C167.221 146.595 165.941 143.1 164.858 139.56C162.676 132.413 161.401 125.02 161.06 117.636C160.448 104.409 162.72 90.9106 167.966 78.454C173.385 65.6077 181.732 53.1666 193.303 43.6731ZM189.411 159.51C188.308 158.096 185.688 159.446 186.715 160.871L186.754 160.922C188.503 163.165 189.366 165.739 190.408 168.259C191.076 169.881 194.076 169.119 193.4 167.481L193.176 166.934C192.138 164.379 191.183 161.779 189.411 159.51ZM197.875 131.906L198.573 131.598C200.772 130.639 202.704 129.977 205.356 130.718C208.907 131.708 212.774 135.015 210.488 138.35C209.648 139.58 208.107 140.096 206.496 139.844C203.782 139.42 203.025 137.346 201.606 135.66L201.362 135.374C200.496 134.355 199.399 132.942 197.996 132.565C197.677 132.478 197.532 132.058 197.875 131.906ZM197.865 62.1125L198.087 61.9329C199.566 60.7535 197.293 58.9075 195.821 60.08C189.086 65.4494 186.928 73.6776 183.556 80.7223C182.8 82.3063 185.532 83.6188 186.295 82.0214C189.512 75.299 191.545 67.2956 197.865 62.1125ZM280.534 58.0903C278.716 57.4318 277.205 59.7132 278.957 60.4172L279.022 60.4422C285.169 62.6736 287.907 67.9617 290.527 72.8695C291.361 74.4367 294.014 73.0145 293.189 71.4604L292.717 70.5799C289.986 65.5229 286.821 60.3763 280.534 58.0903ZM289.971 54.6619C288.048 54.135 287.305 56.7427 289.213 57.2701C294.411 58.7023 298.043 61.9502 301.132 65.6862C302.29 67.0856 304.96 65.6865 303.79 64.2739C300.201 59.9371 295.985 56.3221 289.971 54.6619Z" fill="black"/>
<path fill-rule="evenodd" clip-rule="evenodd" d="M279.882 162.327C277.223 161.462 274.832 159.976 273.058 158.051C272.442 157.382 272.266 156.665 272.373 156.004C272.492 155.261 272.983 154.579 273.667 154.115C274.355 153.648 275.223 153.408 276.072 153.503C276.808 153.587 277.55 153.916 278.148 154.619L278.275 154.759C279.329 155.921 280.686 156.864 282.22 157.458C283.699 158.031 285.34 158.278 287.027 158.079C290.238 157.7 292.414 156.161 294.715 154.085C295.001 153.823 295.286 153.553 295.572 153.278C295.752 153.031 296.004 152.87 296.287 152.782C296.602 152.684 296.962 152.682 297.294 152.773C297.615 152.861 297.904 153.035 298.1 153.271C298.288 153.494 298.399 153.773 298.375 154.097C298.219 156.202 296.99 158.104 295.212 159.614C293.238 161.291 290.59 162.478 288.08 162.928C285.314 163.423 282.472 163.17 279.882 162.327ZM288.441 129.725C291.443 131.203 296.05 134.7 292.98 138.586C289.331 142.031 283.831 138.284 281.124 136.594C278.621 135.292 275.953 138.831 278.284 140.363C297.828 152.139 304.984 129.781 289.886 127.883C288.223 127.673 287.654 129.265 288.441 129.725ZM253.638 116.279C253.865 112.797 260.019 111.878 260.731 115.304C261.37 118.373 260.803 121.216 259.262 124.024C257.792 126.706 253.868 125.551 253.505 123.145C253.018 119.919 253.497 118.445 253.638 116.279ZM300.605 113.753C301.439 112.769 302.663 112.083 304.163 112.425C308.851 113.492 307.641 119.183 306.085 121.974C305.24 123.489 302.381 123.929 301.046 122.638C298.87 120.534 297.735 116.263 300.362 114.09C300.431 113.979 300.509 113.867 300.605 113.753ZM258.538 100.96L259.27 100.834C261.534 100.45 264.353 100.066 266.005 101.599C266.882 102.412 267.221 103.951 266.096 104.77C264.12 106.212 261.873 105.716 259.459 105.885C257.47 106.025 255.563 106.348 253.658 106.858C249.477 107.978 246.101 109.932 242.564 112.075C242.1 112.356 241.604 111.849 241.818 111.466C243.794 107.938 247.735 104.992 251.714 103.163C253.838 102.186 256.169 101.364 258.538 100.96ZM295.928 98.6134L296.493 98.7003C302.648 99.6686 310.666 101.693 313.712 106.786C313.844 107.513 313.731 107.671 313.64 107.775L313.609 107.81C313.533 107.899 313.473 108.02 313.108 108.127C313.006 108.108 312.902 108.088 312.797 108.067C311.458 107.797 310.396 107.407 309.365 107.002L308.249 106.559C306.953 106.048 305.646 105.557 304.265 105.203C301.321 104.447 298.299 103.935 295.238 103.692C294.574 103.639 293.931 103.461 293.419 103.144C292.934 102.842 292.557 102.419 292.376 101.85C292.138 101.113 292.185 100.55 292.63 99.8719C292.963 99.3624 293.453 99.0038 294.02 98.7919C294.598 98.5758 295.264 98.5138 295.928 98.6134Z" fill="black"/>
<path fill-rule="evenodd" clip-rule="evenodd" d="M354.517 239.6C350.78 228.33 347.504 223.586 341.329 219.771C335.552 216.202 327.185 213.28 315.042 211.271C302.407 209.651 301.89 204.055 298.479 195.117C297.481 192.429 292.9 191.804 290.987 193.797C290.703 193.546 290.407 193.317 290.101 193.111C290.332 191.815 288.034 188.16 288.071 186.923C288.467 174.017 283.362 167.647 271.011 165.499C268.324 165.031 250.175 165.104 247.588 165.775C236.28 168.711 225.317 177.51 227.328 187.79C223.868 191.867 220.441 194.383 214.964 195.788C206.405 196.902 213.699 301.041 230.397 363.173C237.561 389.83 389.243 341.017 381.946 327.744C382.857 325.263 380.993 322.598 381.726 320.041C382.258 318.191 383.73 317.4 384.429 315.564C385.415 312.98 384.166 309.568 382.899 306.979C382.373 305.686 383.721 304.255 384.067 302.918C385.717 296.61 381.546 297.25 378.409 293.122C378.454 293.109 379.152 290.099 379.149 290.115C379.549 287.97 378.314 285.257 377.252 283.496C376.537 282.304 375.053 281.58 373.604 281.749C374.946 277.463 376.694 273.884 378.567 269.741C381.878 262.44 385.007 254.81 389.874 248.164C391.865 245.441 390.124 243.013 386.77 242.9C375.916 242.538 365.159 241.426 354.517 239.6Z" fill="#D08B5B"/>
<path fill-rule="evenodd" clip-rule="evenodd" d="M337.625 240.831L313.913 277.227C313.913 277.227 319.796 277.605 322.198 278.532C324.601 279.461 335.847 291.111 335.847 291.111L337.766 297.617L333.811 302.977L335.508 306.255C335.508 306.255 336.585 303.987 339.379 302.186C342.174 300.385 348.365 297.394 348.365 297.394C348.365 297.394 346.253 296.483 346.22 295.36C346.188 294.238 344.216 289.491 348.085 287.601C351.952 285.711 372.091 281.054 372.091 281.054L391.561 243.512L337.625 240.831Z" fill="#9DDADB"/>
<path fill-rule="evenodd" clip-rule="evenodd" d="M225.913 195.801L304.802 205.966L341.329 219.771L347.333 223.538L313.911 277.227L260.208 286.793L247.339 317.671L251.13 352.095L338.633 341.287L376.377 336.638L386.157 367.235L384.911 379.933L382.757 386.404L289.532 410.086C289.532 410.086 241.632 407.119 233.161 407.297C224.69 407.475 162.733 414.064 162.733 414.064L148.325 413.05C148.325 413.05 115.71 385.003 110.486 374.886C105.263 364.77 92.8223 302.871 92.8223 302.871L93.7235 293.3L119.46 232.148C119.46 232.148 123.047 229.216 127.532 224.259C132.018 219.302 225.913 195.801 225.913 195.801Z" fill="#9DDADB"/>
<path fill-rule="evenodd" clip-rule="evenodd" d="M370.586 280.321C363.496 280.78 356.431 282.374 350.085 285.13C347.487 286.259 345.152 287.859 344.527 290.424C344.212 291.734 344.336 293.078 344.562 294.389C344.733 295.382 344.803 296.654 345.832 297.307C346.008 297.418 346.195 297.501 346.388 297.561C344.047 298.527 341.822 299.675 339.849 300.85C338.047 301.926 336.208 303.563 335.415 305.383C335.339 305.18 335.263 304.991 335.187 304.81C333.642 301.19 331.336 298.246 327.782 296.31C327.35 295.077 322.936 289.83 318.983 290.114C314.654 290.424 311.176 290.768 307.305 292.558C305.876 292.561 304.45 292.609 303.043 292.692C302.8 292.704 302.819 292.985 303.051 293.004C304.198 293.104 305.346 293.217 306.493 293.355C309.222 293.67 311.944 294.086 314.612 294.618C317.812 295.257 321.121 295.895 324.128 297.064C329.96 299.337 333.707 305.517 333.131 310.974C333.034 311.87 332.708 314.576 331.254 314.328C330.027 314.118 329.478 311.944 329.03 311.144C327.825 309.02 325.724 307.661 323.227 306.763C320.292 305.707 317.166 305.016 314.133 304.202C312.417 303.738 310.698 303.272 308.978 302.812C307.216 302.335 305.537 301.662 303.686 302.061C302.569 302.302 302.472 303.452 303.121 304.097C304.109 305.08 305.544 305.345 306.938 305.729C308.777 306.234 310.615 306.74 312.45 307.245C315.288 308.024 318.258 308.671 321.032 309.64L320.95 309.81C320.726 309.76 320.468 309.957 320.518 310.191C320.993 312.354 321.636 314.852 321.063 317.041C320.611 318.775 318.9 320.722 316.592 320.263C316.944 319.974 317.063 319.485 316.807 319.04C315.85 317.395 303.761 311.074 302.769 313.536C302.735 313.623 302.847 313.685 302.934 313.671C303.833 313.49 305.387 314.781 306.123 315.184C307.185 315.767 308.264 316.336 309.315 316.934C310.466 317.589 311.59 318.276 312.687 318.988C313.551 319.549 314.206 320.135 315.185 320.408C314.682 320.625 314.289 321.019 314.132 321.516C313.729 322.811 312.915 323.919 311.464 324.518C309.942 325.141 308.195 324.804 306.579 324.984C304.376 325.22 302.476 326.16 300.904 327.48C297.602 330.255 296.043 335.056 291.352 336.433C288.551 337.254 285.405 336.84 282.537 336.555C279.335 336.236 276.217 335.996 273.013 336.467C269.947 336.916 267.064 337.89 264.285 339.063C261.678 340.162 258.799 341.404 256.506 343.01C255.988 341.749 255.467 340.501 255.061 339.209C254.105 336.158 253.545 333.041 253.341 329.888C253.15 326.888 253.259 323.865 253.475 320.87C253.581 319.372 253.774 317.881 253.88 316.385C253.908 316.008 253.975 315.603 254.022 315.2C258.136 313.002 262.475 311.293 266.847 309.535C266.86 309.532 266.871 309.525 266.882 309.521C267.019 309.465 267.151 309.411 267.286 309.359C267.283 309.352 267.277 309.346 267.27 309.338C267.767 309.063 268.11 308.703 268.31 308.302C274.576 304.548 279.761 299.494 283.566 293.645C285.162 291.194 286.691 288.653 288.807 286.491C291.061 284.183 293.775 282.783 297.162 282.014C301.121 281.112 305.21 280.535 309.282 280.17C311.506 279.973 313.989 279.686 316.417 279.646C318.108 279.619 319.769 279.709 321.299 280.037C323.564 280.519 324.923 281.958 326.379 283.412C327.771 284.806 329.154 286.204 330.457 287.662C331.692 289.042 332.86 290.471 333.883 291.974C334.497 292.874 335.068 293.803 335.554 294.763C335.724 295.103 335.947 295.487 336.054 295.839C336.164 296.197 335.993 296.581 336.464 296.57C334.527 296.635 333.357 300.803 335.279 300.666C337.984 300.474 339.267 297.663 338.665 295.204C337.593 290.819 332.326 285.606 331.282 284.501C328.976 282.057 326.577 278.858 322.966 277.775C322.914 277.759 322.858 277.743 322.808 277.73C323.824 276.863 324.617 275.834 325.376 274.786C326.156 273.709 327.089 272.473 327.319 271.209C327.463 270.404 326.288 269.972 325.756 270.685C324.983 271.725 324.632 273.029 324.065 274.166C323.486 275.319 322.773 276.412 322.218 277.576C320.795 277.233 319.263 277.094 317.708 277.07C319.604 274.752 322.83 270.293 323.218 269.721C324.997 267.072 326.686 264.343 328.297 261.613C330.038 258.656 331.514 255.582 333.177 252.592C334.119 250.897 335.07 249.188 336.123 247.541C336.486 246.976 336.877 246.41 337.326 245.894C337.413 245.791 337.524 245.705 337.626 245.608C337.747 245.55 337.871 245.483 337.94 245.448C338.564 245.122 338.768 244.393 339.2 243.923C339.892 243.167 340.728 243.062 341.8 243.029C344.086 242.962 346.383 242.991 348.667 242.996C352.026 243.007 355.38 243.05 358.737 243.131C359.751 243.156 360.763 243.182 361.779 243.215C366.661 243.361 371.542 243.583 376.413 243.882C380.721 244.144 385.037 244.627 389.349 244.813C383.862 256.797 377.734 268.581 370.741 279.976C370.669 280.091 370.617 280.206 370.586 280.321ZM339.134 311.56C338.205 311.949 337.306 312.429 336.47 312.97C336.588 312.151 336.599 311.291 336.534 310.429C337.254 311.06 338.16 311.409 339.134 311.56ZM378.665 290.312C378.598 290.32 378.537 290.352 378.507 290.409C377.273 292.734 377.89 295.292 380.065 297.048C381.203 297.965 383.658 298.975 383.622 300.52C383.591 301.77 382.036 302.85 381.388 303.893C380.786 304.867 380.58 305.926 381.116 306.956C381.8 308.274 383.621 308.766 384.277 310.062C385.107 311.706 383.891 313.737 383.04 315.202C382.249 316.558 381.212 317.919 380.541 319.35C375.829 321.569 365.109 325.641 363.809 325.884C362.228 326.183 360.643 326.467 359.05 326.735C355.999 327.256 352.936 327.744 349.866 328.181C348.118 328.428 346.366 328.675 344.612 328.875C343.081 329.048 341.357 329.277 340.09 328.312C337.539 326.364 338.841 322.982 340.361 320.929C340.391 320.889 340.391 320.851 340.378 320.818C341.857 320.489 343.331 320.108 344.805 319.833C347.638 319.302 350.493 318.847 353.351 318.434C359.228 317.589 365.15 316.987 371.066 316.383C372.53 316.231 372.49 314.252 371.008 314.4C362.512 315.246 353.971 316.061 345.608 317.643C343.511 318.037 341.431 318.477 339.365 318.966C338.388 319.194 337.345 319.542 336.314 319.574C336.251 319.576 336.188 319.577 336.127 319.574C334.108 319.563 333.772 318.089 334.846 316.834C334.977 316.68 335.114 316.526 335.255 316.38C337.156 314.338 339.556 312.951 342.031 311.517C344.836 311.128 347.625 310.338 350.365 309.743C357.132 308.271 363.9 306.8 370.671 305.331C371.998 305.042 371.381 303.295 370.054 303.581C364.913 304.694 359.773 305.806 354.633 306.917L347.109 308.545C345.608 308.869 343.737 309.497 341.965 309.744C341.091 309.867 340.242 309.898 339.469 309.76C336.978 309.309 336.775 306.657 337.799 305.058C338.946 303.261 341.179 302.105 343.159 301.06C346.59 299.245 350.257 297.915 353.835 296.397C354.473 296.262 355.113 296.129 355.75 295.994C359.466 295.211 363.724 294.775 367.204 293.411C368.246 293.006 367.629 291.594 366.589 291.637C363.861 291.745 361.03 292.636 358.377 293.186C355.508 293.783 352.632 294.377 349.762 294.971C349.475 295.031 347.773 295.538 347.512 295.438C347.345 295.374 347.272 294.887 347.208 294.566C347.002 293.508 346.84 292.398 347.002 291.329C347.356 288.934 349.645 287.765 351.97 286.799C357.143 284.652 362.842 283.257 368.537 282.627C369.85 282.482 371.162 282.381 372.484 282.316C374.038 282.243 375.311 281.98 376.136 283.277C377.432 285.317 378.19 287.962 378.665 290.312ZM373.543 365.414C372.308 362.058 372.514 358.445 371.635 355.016C371.181 353.246 370.58 351.493 369.929 349.77C369.405 348.378 368.554 346.904 368.42 345.443C368.413 345.345 368.544 345.286 368.639 345.329C370.269 346.085 371.553 347.765 372.508 349.085C373.652 350.664 374.538 352.325 375.265 354.074C376.713 357.56 377.942 361.777 376.305 365.355C375.817 366.421 374.006 366.67 373.543 365.414ZM329.792 391.923C328.064 390.943 326.785 389.549 325.309 388.326C323.857 387.123 326.017 385.178 327.469 386.382C328.729 387.423 329.834 388.737 331.305 389.572C332.013 389.973 332.358 390.717 331.92 391.396C331.534 391.994 330.496 392.323 329.792 391.923ZM319.202 353.079C322.27 351.864 325.283 350.549 328.505 349.654C330.429 349.118 331.325 351.693 329.412 352.225C326.445 353.049 323.674 354.245 320.848 355.363C319.035 356.081 317.376 353.801 319.202 353.079ZM286.432 352.962C285.627 351.375 288.64 350.619 289.433 352.185C290.346 353.986 291.382 355.738 292.294 357.541C293.097 359.127 290.086 359.882 289.294 358.317C288.382 356.516 287.344 354.765 286.432 352.962ZM255.027 385.66C254.539 386.248 253.705 386.578 252.898 386.188C252.222 385.859 251.789 384.957 252.284 384.363C253.728 382.625 255.192 380.91 256.899 379.352C258.282 378.089 260.551 379.943 259.168 381.204C257.644 382.595 256.317 384.109 255.027 385.66ZM245.267 206.095C246.729 206.906 248.018 207.902 249.276 208.928C250.739 210.122 248.578 212.066 247.115 210.874C246.055 210.008 244.985 209.13 243.752 208.447C243.04 208.051 242.704 207.295 243.138 206.622C243.527 206.018 244.556 205.701 245.267 206.095ZM293.525 248.308C292.752 249.72 292.059 251.104 292.059 252.69C292.059 254.418 288.925 254.485 288.927 252.755C288.927 250.68 289.769 248.861 290.781 247.011C291.638 245.443 294.378 246.749 293.525 248.308ZM309.786 213.25C311.441 212.252 313.075 214.547 311.434 215.535C310.103 216.337 308.772 217.138 307.441 217.94C305.783 218.937 304.15 216.644 305.793 215.654C307.124 214.854 308.455 214.052 309.786 213.25ZM236.688 275.483C236.45 277.195 233.41 276.53 233.647 274.833C234.013 272.213 234.477 269.626 235.23 267.064C235.724 265.388 238.765 266.036 238.271 267.715C237.517 270.275 237.054 272.864 236.688 275.483ZM226.585 306.466C224.568 306.473 224.49 303.787 226.508 303.782C228.334 303.776 230.139 304.151 231.91 304.491C233.88 304.869 233.119 307.473 231.151 307.095C229.654 306.809 228.128 306.462 226.585 306.466ZM224.302 368.498C223.618 368.801 222.915 369.076 222.222 369.365C220.836 369.945 219.45 370.525 218.065 371.104C215.179 372.315 212.295 373.528 209.414 374.745C203.646 377.181 197.83 379.538 192.048 381.95C186.15 384.411 180.27 386.901 174.397 389.404C171.63 390.582 168.841 391.72 166.058 392.869C163.678 393.853 160.75 395.544 158.113 395.754C157.977 395.765 157.927 395.619 158.003 395.541C158.973 394.547 160.549 393.948 161.842 393.289C163.164 392.614 164.512 391.977 165.853 391.332C168.648 389.987 171.448 388.651 174.272 387.35C179.922 384.749 185.583 382.166 191.246 379.586C197.021 376.954 202.788 374.305 208.617 371.762C211.361 370.564 214.108 369.37 216.857 368.179C218.346 367.534 219.836 366.889 221.326 366.246C221.97 365.968 222.606 365.671 223.265 365.42C224.141 365.088 224.815 365.137 225.722 364.924C227.2 364.58 227.891 366.187 226.769 366.918C225.845 367.518 225.364 368.026 224.302 368.498ZM204.178 396.464C203.837 395.801 204.487 394.974 205.224 394.79C206.108 394.57 206.834 395.018 207.178 395.687C208.088 397.46 209.358 399.076 210.972 400.431C212.415 401.641 210.256 403.587 208.812 402.375C206.789 400.677 205.313 398.676 204.178 396.464ZM187.561 353.696C186.097 352.503 188.259 350.557 189.721 351.752L193.88 355.146C195.344 356.339 193.182 358.284 191.72 357.09L187.561 353.696ZM145.748 348.898C142.851 349.693 139.466 350.438 137.537 352.614C137.443 352.721 137.275 352.59 137.331 352.485C139.749 347.905 147.009 346.164 152.022 344.473C155.568 343.275 159.212 342.268 162.89 341.36C162.416 337.748 163.326 333.849 163.578 330.239C163.846 326.386 164.044 322.525 164.092 318.664C164.141 314.727 164.067 310.764 163.803 306.832C163.541 302.915 162.836 299.054 162.464 295.152C162.428 294.774 163.042 294.742 163.183 295.052C164.824 298.646 165.596 302.65 166.206 306.463C166.833 310.392 167.117 314.315 167.164 318.28C167.213 322.355 167.053 326.424 166.789 330.493C166.665 332.423 166.511 334.349 166.369 336.276C166.261 337.747 166.233 339.205 165.924 340.634C168.143 340.116 170.368 339.626 172.587 339.147C179.66 337.623 186.767 336.197 193.807 334.559C197.264 333.757 200.666 332.81 204.105 331.961C207.343 331.162 210.758 330.203 214.095 329.805C215.286 329.664 215.478 331.062 214.701 331.553C212.028 333.247 208.449 334.462 205.333 335.444C202.207 336.43 198.948 337.159 195.736 337.909C189.038 339.47 182.268 340.774 175.51 342.127C168.761 343.477 161.999 344.819 155.335 346.452C152.125 347.238 148.927 348.026 145.748 348.898ZM127.7 277.413C125.981 278.328 124.34 276.039 126.053 275.129C128.294 273.938 130.693 273.028 133.112 272.137C134.968 271.455 135.849 274.036 134.019 274.71C131.845 275.508 129.714 276.344 127.7 277.413ZM124.238 377.284C122.514 378.189 120.872 375.901 122.591 374.999C125.005 373.731 127.663 372.863 130.17 371.746C131.954 370.95 133.606 373.233 131.817 374.03C129.311 375.148 126.652 376.015 124.238 377.284ZM119.778 320.727C121.508 322.069 123.783 322.67 125.932 323.348C127.805 323.939 127.065 326.551 125.173 325.954C122.496 325.109 119.772 324.342 117.617 322.673C116.118 321.51 118.283 319.569 119.778 320.727ZM136.284 243.447C138.161 244.033 137.421 246.645 135.525 246.053C133.423 245.397 131.257 244.91 129.155 244.252C127.279 243.668 128.018 241.055 129.914 241.646C132.016 242.303 134.182 242.791 136.284 243.447ZM168.408 212.214C170.375 211.887 171.29 214.457 169.315 214.785C166.865 215.194 164.454 215.661 162.142 216.483C160.276 217.147 159.393 214.568 161.235 213.912C163.547 213.089 165.958 212.622 168.408 212.214ZM181.438 286.343C179.605 285.618 181.128 283.27 182.952 283.991C184.875 284.752 186.861 285.33 188.945 285.664C190.929 285.983 190.162 288.589 188.186 288.27C185.841 287.894 183.6 287.198 181.438 286.343ZM190.538 244.242C192.474 243.744 193.373 246.317 191.445 246.814C188.051 247.687 184.546 248.178 181.125 248.964C179.175 249.412 178.271 246.841 180.218 246.393C183.639 245.607 187.145 245.116 190.538 244.242ZM233.846 230.182C235.838 230.453 235.067 233.058 233.088 232.788C230.981 232.499 228.855 232.539 226.728 232.582C224.71 232.623 224.636 229.939 226.652 229.898C229.068 229.848 231.454 229.853 233.846 230.182ZM376.72 241.215C371.59 240.904 366.455 240.675 361.314 240.532C361.075 240.526 360.84 240.518 360.6 240.513C360.573 240.467 360.535 240.424 360.498 240.377C358.763 238.306 357.469 236.223 356.333 233.863C355.246 231.616 354.188 229.299 352.556 227.285C350.693 224.99 348.218 223.216 345.515 221.691C343.932 222.654 342.467 223.772 341.132 224.952C339.727 226.195 337.458 224.343 338.863 223.101C340.049 222.052 341.319 221.078 342.667 220.195C341.06 219.402 339.421 218.661 337.823 217.924C331.831 215.159 325.706 212.614 319.46 210.3C316.558 209.223 313.624 208.274 310.67 207.313C309.08 206.795 307.506 206.12 305.913 205.515C305.998 204.559 305.635 203.499 304.764 202.89C304.12 202.443 303.625 202.283 302.865 201.973C302.695 201.926 302.593 201.897 302.544 201.883C302.58 201.887 302.684 201.913 302.852 201.956C303.256 202.105 303.286 202.057 302.943 201.816C302.908 201.274 301.625 200.151 301.325 199.597C300.273 197.696 299.906 195.668 298.388 193.948C296.295 191.577 292.871 190.736 289.726 191.621C289.315 188.726 289.141 185.697 287.791 183.134C287.754 183.064 287.639 183.035 287.591 183.114C286.315 185.085 286.263 187.252 286.224 189.496C286.187 191.602 286.343 193.751 286.723 195.835C286.525 195.973 286.321 196.105 286.107 196.233C285.114 196.826 284.038 197.288 282.904 197.637C280.746 198.3 278.469 198.617 276.189 198.759C270.305 199.124 264.216 198.741 258.397 197.996C252.51 197.243 243.486 196.117 238.198 193.713C234.709 192.128 231.476 190.171 228.201 188.279C229.276 185.033 229.474 181.563 228.222 178.867C228.071 178.544 227.475 178.496 227.372 178.885C226.71 181.498 226.57 184.112 225.664 186.701C225.649 186.737 225.635 186.779 225.62 186.815C225.31 186.644 224.999 186.475 224.689 186.308C223.973 185.922 223.022 186.242 222.615 186.821C216.114 196.094 205.42 196.843 194.221 198.709C181.965 200.753 169.651 202.939 157.918 206.681C146.698 210.261 136.022 215.354 127.663 222.801C125.771 224.488 124.007 226.28 122.348 228.146C124.009 228.29 125.659 228.535 127.294 228.937C129.228 229.413 128.477 232.021 126.535 231.543C124.435 231.025 122.32 230.792 120.187 230.698C114.561 237.647 110.244 245.48 106.537 253.179C99.4257 267.942 94.9702 283.597 93.1682 299.48C94.3881 298.817 95.6311 298.185 96.9068 297.596C98.6794 296.775 100.329 299.059 98.5542 299.88C96.5837 300.792 94.673 301.791 92.8248 302.871C92.2026 309.819 92.0842 316.801 92.4761 323.762C93.4092 340.356 96.5136 357.393 102.883 373.11C106.007 380.824 110.073 388.456 115.989 394.907C118.666 397.828 121.688 400.452 125.221 402.616C126.932 403.668 128.737 404.602 130.636 405.38C133.082 406.39 136.24 406.673 138.366 408.129C139.066 408.609 139.613 409.247 140.033 409.975C139.842 411.376 139.855 412.775 140.341 414.161C140.495 414.595 140.889 414.943 141.367 415.105C141.379 415.225 141.382 415.343 141.385 415.456C141.387 415.51 141.481 415.521 141.491 415.469C141.508 415.364 141.524 415.259 141.541 415.151C141.695 415.191 141.856 415.208 142.021 415.205C147.969 415.1 153.92 414.851 159.871 414.552C159.376 413.353 158.843 412.165 158.329 410.966C157.632 409.336 160.639 408.576 161.33 410.189C161.93 411.59 162.556 412.978 163.118 414.387C169.493 414.049 175.866 413.671 182.228 413.358C195.761 412.686 209.298 412.275 222.838 411.746C243.866 410.921 265.036 409.695 286.13 410.018C286.819 408.677 287.598 407.365 288.334 406.041C289.202 404.479 291.944 405.782 291.078 407.34C290.566 408.26 290.036 409.168 289.532 410.086C293.805 410.186 298.076 410.348 302.341 410.601C309.615 411.033 316.835 411.917 324.106 412.41C331.497 412.913 338.705 412.645 345.991 411.447C347.3 411.231 348.057 410.534 348.353 409.681C348.364 409.678 348.372 409.671 348.379 409.66C348.744 409.278 349.089 408.958 349.445 408.679C349.874 408.428 350.337 408.213 350.884 408.02C351.904 407.662 352.971 407.435 354.056 407.275C355.25 407.095 356.462 407.057 357.658 406.905C358.665 406.773 359.646 406.587 360.626 406.365C362.391 405.966 364.062 405.458 365.719 404.794C367.163 404.217 368.461 403.404 369.681 402.521C372.212 400.854 374.384 398.746 376.273 396.564C377.373 395.288 378.406 393.967 379.338 392.595C380.962 390.217 382.334 387.754 383.719 385.27C384.227 384.533 384.688 383.778 385.107 383.008C382.241 382.349 379.349 381.823 376.331 381.846C374.312 381.86 374.236 379.176 376.255 379.161C379.716 379.136 383.011 379.76 386.287 380.518C386.435 380.153 386.576 379.787 386.706 379.416C387.073 378.639 387.371 377.843 387.614 377.04C387.76 376.674 387.907 376.307 388.053 375.942C388.369 374.679 388.686 373.414 389.006 372.148C389.657 370.12 390.158 368.064 390.51 365.985C390.816 364.616 391.044 363.238 391.183 361.845C391.635 358.467 391.986 355.098 391.919 351.696C391.813 349.6 391.596 347.508 391.27 345.43C391.116 344.017 390.884 342.611 390.586 341.217C390.189 339.144 389.798 337.091 389.179 335.048C388.721 333.668 388.261 332.288 387.803 330.906C386.674 328.033 385.36 325.22 383.858 322.474C383.776 322.301 383.368 321.928 383.131 321.929C382.95 321.929 382.703 322.076 382.79 322.261C382.799 322.279 382.807 322.298 382.816 322.315C382.729 322.158 382.647 321.999 382.56 321.844C382.486 321.698 382.202 321.408 381.991 321.416C381.98 321.416 381.967 321.416 381.952 321.42C382.006 321.385 382.056 321.34 382.106 321.289C383.47 319.833 384.329 317.938 385.287 316.266C386.083 314.886 386.83 313.434 387.011 311.889C387.173 310.532 386.865 309.204 385.844 308.132C384.679 306.911 382.54 306.371 383.667 304.548C384.948 302.474 386.867 300.657 384.839 298.373C383.806 297.209 382.206 296.591 381.001 295.585C379.616 294.423 378.928 292.841 378.917 291.213C379.001 291.251 379.11 291.23 379.147 291.127C380.198 288.165 379.284 284.954 378.038 282.116C377.36 280.575 376.005 280.176 374.44 280.133C380.882 268.665 386.884 257.025 392.19 245.135C392.367 244.744 392.54 244.355 392.712 243.966C392.97 243.383 392.369 242.627 391.696 242.513C386.791 241.7 381.7 241.514 376.72 241.215Z" fill="black"/>
<path d="M206.483 136.147C220.388 191.735 264.265 224.029 277.86 231.441M277.86 231.441C269.517 267.176 254.5 324.988 220.388 343.412C186.275 361.835 182.691 398.735 185.163 414.882M277.86 231.441C288.366 216.618 319.017 167.594 316.792 163.147" stroke="#EC7495" stroke-width="2"/>
<path d="M336.259 275.118H367.776" stroke="#22252B"/>
<path d="M345.528 270.353H362.214" stroke="#22252B"/>
<path d="M358.506 265.588C362.601 265.588 365.921 262.744 365.921 259.235C365.921 255.727 362.601 252.882 358.506 252.882C354.41 252.882 351.09 255.727 351.09 259.235C351.09 262.744 354.41 265.588 358.506 265.588Z" fill="#E78276"/>
<path d="M362.214 233.823L375.191 240.176" stroke="#22252B"/>
<path d="M365.921 232.235L384.46 240.177" stroke="#22252B"/>
<path d="M391.877 244.147L395.585 240.971L377.045 280.676M394.658 240.971L364.068 225.882L358.506 239.382" stroke="#22252B"/>
</g>
<defs>
<filter id="filter0_d_301_158" x="73" y="21" width="342" height="421" filterUnits="userSpaceOnUse" color-interpolation-filters="sRGB">
<feFlood flood-opacity="0" result="BackgroundImageFix"/>
<feColorMatrix in="SourceAlpha" type="matrix" values="0 0 0 0 0 0 0 0 0 0 0 0 0 0 0 0 0 0 127 0" result="hardAlpha"/>
<feOffset dx="7" dy="11"/>
<feGaussianBlur stdDeviation="2.5"/>
<feComposite in2="hardAlpha" operator="out"/>
<feColorMatrix type="matrix" values="0 0 0 0 0 0 0 0 0 0 0 0 0 0 0 0 0 0 0.25 0"/>
<feBlend mode="normal" in2="BackgroundImageFix" result="effect1_dropShadow_301_158"/>
<feBlend mode="normal" in="SourceGraphic" in2="effect1_dropShadow_301_158" result="shape"/>
</filter>
</defs>
</svg>
